Alegreya Sans SC-Light.ufo
<glyph name="quotedbl" format="1">
  <advance width="253"/>
  <unicode hex="0022"/>
  <outline>
    <contour>
      <point x="58" y="633" type="line"/>
      <point x="50" y="468" type="line"/>
      <point x="55" y="463" type="line"/>
      <point x="84" y="467" type="line"/>
      <point x="103" y="631" type="line"/>
      <point x="98" y="637" type="line"/>
    </contour>
    <contour>
      <point x="164" y="633" type="line"/>
      <point x="156" y="468" type="line"/>
      <point x="161" y="463" type="line"/>
      <point x="190" y="467" type="line"/>
      <point x="209" y="631" type="line"/>
      <point x="204" y="637" type="line"/>
    </contour>
  </outline>
</glyph>
<glyph name="period" format="1">
  <advance width="230"/>
  <unicode hex="002E"/>
  <outline>
    <contour>
      <point x="94" y="65"/>
      <point x="81" y="51"/>
      <point x="81" y="30" type="curve" smooth="yes"/>
      <point x="81" y="9"/>
      <point x="93" y="-3"/>
      <point x="114" y="-3" type="curve" smooth="yes"/>
      <point x="135" y="-3"/>
      <point x="148" y="10"/>
      <point x="148" y="32" type="curve" smooth="yes"/>
      <point x="148" y="52"/>
      <point x="136" y="65"/>
      <point x="115" y="65" type="curve" smooth="yes"/>
    </contour>
  </outline>
</glyph>
<glyph name="five" format="1">
  <advance width="411"/>
  <unicode hex="0035"/>
  <outline>
    <contour>
      <point x="280" y="495" type="line"/>
      <point x="145" y="495" type="line"/>
      <point x="93" y="496" type="line"/>
      <point x="82" y="486" type="line"/>
      <point x="77" y="239" type="line"/>
      <point x="83" y="233" type="line"/>
      <point x="163" y="217" type="line" smooth="yes"/>
      <point x="265" y="194"/>
      <point x="309" y="156"/>
      <point x="309" y="92" type="curve" smooth="yes"/>
      <point x="309" y="3"/>
      <point x="241" y="-56"/>
      <point x="135" y="-56" type="curve" smooth="yes"/>
      <point x="108" y="-56"/>
      <point x="77" y="-51"/>
      <point x="42" y="-40" type="curve"/>
      <point x="37" y="-45" type="line"/>
      <point x="42" y="-90" type="line"/>
      <point x="71" y="-96"/>
      <point x="101" y="-99"/>
      <point x="126" y="-99" type="curve" smooth="yes"/>
      <point x="264" y="-99"/>
      <point x="358" y="-19"/>
      <point x="358" y="99" type="curve" smooth="yes"/>
      <point x="358" y="179"/>
      <point x="310" y="230"/>
      <point x="184" y="257" type="curve" smooth="yes"/>
      <point x="120" y="271" type="line"/>
      <point x="125" y="451" type="line"/>
      <point x="295" y="451" type="line"/>
      <point x="353" y="447" type="line"/>
      <point x="357" y="451" type="line"/>
      <point x="363" y="493" type="line"/>
      <point x="359" y="497" type="line"/>
    </contour>
  </outline>
</glyph>
<glyph name="at" format="1">
  <advance width="816"/>
  <unicode hex="0040"/>
  <outline>
    <contour>
      <point x="204" y="604"/>
      <point x="40" y="434"/>
      <point x="40" y="189" type="curve"/>
      <point x="40" y="-43"/>
      <point x="203" y="-188"/>
      <point x="446" y="-192" type="curve"/>
      <point x="465" y="-163" type="line"/>
      <point x="463" y="-157" type="line"/>
      <point x="231" y="-157"/>
      <point x="79" y="-25"/>
      <point x="79" y="196" type="curve" smooth="yes"/>
      <point x="79" y="413"/>
      <point x="225" y="565"/>
      <point x="446" y="566" type="curve"/>
      <point x="628" y="568"/>
      <point x="741" y="456"/>
      <point x="741" y="290" type="curve"/>
      <point x="741" y="133"/>
      <point x="649" y="42"/>
      <point x="487" y="34" type="curve"/>
      <point x="459" y="-4" type="line"/>
      <point x="665" y="6"/>
      <point x="780" y="109"/>
      <point x="780" y="292" type="curve"/>
      <point x="780" y="478"/>
      <point x="651" y="604"/>
      <point x="450" y="604" type="curve"/>
    </contour>
    <contour>
      <point x="515" y="440" type="line"/>
      <point x="509" y="360" type="line"/>
      <point x="459" y="-4" type="line"/>
      <point x="511" y="7" type="line"/>
      <point x="518" y="108" type="line"/>
      <point x="566" y="458" type="line"/>
      <point x="558" y="462" type="line"/>
    </contour>
    <contour>
      <point x="373" y="181" type="move"/>
    </contour>
    <contour>
      <point x="305" y="444"/>
      <point x="225" y="297"/>
      <point x="225" y="144" type="curve" smooth="yes"/>
      <point x="225" y="65"/>
      <point x="247" y="22"/>
      <point x="290" y="-6" type="curve"/>
      <point x="303" y="-6" type="line"/>
      <point x="368" y="54"/>
      <point x="431" y="140"/>
      <point x="483" y="235" type="curve"/>
      <point x="496" y="235" type="line"/>
      <point x="513" y="357" type="line"/>
      <point x="423" y="159"/>
      <point x="323" y="51"/>
      <point x="305" y="51" type="curve" smooth="yes"/>
      <point x="293" y="51"/>
      <point x="270" y="75"/>
      <point x="270" y="156" type="curve" smooth="yes"/>
      <point x="270" y="295"/>
      <point x="337" y="418"/>
      <point x="451" y="420" type="curve"/>
      <point x="531" y="400" type="line"/>
      <point x="547" y="440" type="line"/>
      <point x="462" y="461" type="line"/>
      <point x="458" y="461" type="line"/>
    </contour>
  </outline>
</glyph>
<glyph name="A" format="1">
  <advance width="567"/>
  <unicode hex="0041"/>
  <outline>
    <contour>
      <point x="260" y="639" type="line"/>
      <point x="16" y="0" type="line" smooth="yes"/>
      <point x="70" y="0" type="line"/>
      <point x="85" y="56" type="line"/>
      <point x="285" y="579" type="line"/>
      <point x="291" y="579" type="line"/>
      <point x="474" y="54" type="line"/>
      <point x="487" y="0" type="line"/>
      <point x="542" y="0" type="line"/>
      <point x="319" y="639" type="line"/>
    </contour>
    <contour>
      <point x="280" y="237" type="line"/>
      <point x="125" y="238" type="line"/>
      <point x="122" y="192" type="line"/>
      <point x="275" y="194" type="line"/>
      <point x="442" y="192" type="line"/>
      <point x="439" y="238" type="line"/>
    </contour>
    <contour>
      <point x="587" y="10" type="move" name="ogonek"/>
    </contour>
    <contour>
      <point x="284" y="639" type="move" name="top"/>
    </contour>
  </outline>
</glyph>
<glyph name="F" format="1">
  <advance width="423"/>
  <unicode hex="0046"/>
  <outline>
    <contour>
      <point x="101" y="639" type="line"/>
      <point x="104" y="194" type="line"/>
      <point x="101" y="0" type="line"/>
      <point x="153" y="0" type="line"/>
      <point x="151" y="197" type="line"/>
      <point x="154" y="639" type="line"/>
    </contour>
    <contour>
      <point x="269" y="339" type="line"/>
      <point x="138" y="340" type="line"/>
      <point x="138" y="296" type="line"/>
      <point x="263" y="296" type="line"/>
      <point x="370" y="295" type="line"/>
      <point x="376" y="335" type="line"/>
      <point x="371" y="341" type="line"/>
    </contour>
    <contour>
      <point x="137" y="639" type="line"/>
      <point x="133" y="599" type="line"/>
      <point x="137" y="593" type="line"/>
      <point x="277" y="594" type="line"/>
      <point x="421" y="591" type="line"/>
      <point x="426" y="633" type="line"/>
      <point x="422" y="639" type="line"/>
    </contour>
  </outline>
</glyph>
<glyph name="J" format="1">
  <advance width="290"/>
  <unicode hex="004A"/>
  <outline>
    <contour>
      <point x="138" y="639" type="line"/>
      <point x="141" y="206" type="line"/>
      <point x="141" y="115" type="line" smooth="yes"/>
      <point x="141" y="36"/>
      <point x="105" y="-11"/>
      <point x="17" y="-63" type="curve"/>
      <point x="17" y="-71" type="line"/>
      <point x="39" y="-100" type="line"/>
      <point x="148" y="-39"/>
      <point x="189" y="19"/>
      <point x="189" y="116" type="curve" smooth="yes"/>
      <point x="188" y="212" type="line"/>
      <point x="191" y="639" type="line"/>
    </contour>
    <contour>
      <point x="11" y="639" type="line"/>
      <point x="7" y="600" type="line"/>
      <point x="13" y="595" type="line"/>
      <point x="151" y="595" type="line"/>
      <point x="150" y="639" type="line"/>
    </contour>
    <contour>
      <point x="121" y="639" type="move" name="top"/>
    </contour>
  </outline>
</glyph>
<glyph name="K" format="1">
  <advance width="528"/>
  <unicode hex="004B"/>
  <outline>
    <contour>
      <point x="444" y="639" type="line"/>
      <point x="403" y="588" type="line"/>
      <point x="172" y="341" type="line"/>
      <point x="172" y="337" type="line"/>
      <point x="264" y="219"/>
      <point x="367" y="103"/>
      <point x="469" y="-5" type="curve"/>
      <point x="476" y="-8" type="line"/>
      <point x="492" y="-5"/>
      <point x="508" y="-2"/>
      <point x="523" y="4" type="curve"/>
      <point x="524" y="11" type="line"/>
      <point x="421" y="113"/>
      <point x="320" y="227"/>
      <point x="230" y="340" type="curve"/>
      <point x="507" y="639" type="line"/>
    </contour>
    <contour>
      <point x="100" y="639" type="line"/>
      <point x="103" y="194" type="line"/>
      <point x="100" y="0" type="line"/>
      <point x="152" y="0" type="line"/>
      <point x="150" y="197" type="line"/>
      <point x="153" y="639" type="line"/>
    </contour>
    <contour>
      <point x="281" y="0" type="move" name="bottom"/>
    </contour>
    <contour>
      <point x="265" y="639" type="move" name="top"/>
    </contour>
  </outline>
</glyph>
<glyph name="Q" format="1">
  <advance width="634"/>
  <unicode hex="0051"/>
  <outline>
    <contour>
      <point x="143" y="645"/>
      <point x="43" y="527"/>
      <point x="43" y="316" type="curve" smooth="yes"/>
      <point x="43" y="110"/>
      <point x="138" y="-6"/>
      <point x="310" y="-6" type="curve" smooth="yes"/>
      <point x="489" y="-6"/>
      <point x="589" y="115"/>
      <point x="589" y="329" type="curve" smooth="yes"/>
      <point x="589" y="533"/>
      <point x="494" y="645"/>
      <point x="323" y="645" type="curve"/>
    </contour>
    <contour>
      <point x="328" y="1" type="line"/>
      <point x="435" y="-95"/>
      <point x="567" y="-161"/>
      <point x="701" y="-187" type="curve"/>
      <point x="708" y="-186" type="line"/>
      <point x="716" y="-179"/>
      <point x="722" y="-170"/>
      <point x="731" y="-153" type="curve"/>
      <point x="729" y="-145" type="line"/>
      <point x="594" y="-124"/>
      <point x="468" y="-67"/>
      <point x="366" y="19" type="curve"/>
    </contour>
    <contour>
      <point x="460" y="600"/>
      <point x="535" y="506"/>
      <point x="535" y="326" type="curve" smooth="yes"/>
      <point x="535" y="137"/>
      <point x="456" y="38"/>
      <point x="312" y="38" type="curve" smooth="yes"/>
      <point x="170" y="38"/>
      <point x="95" y="135"/>
      <point x="95" y="319" type="curve" smooth="yes"/>
      <point x="95" y="504"/>
      <point x="171" y="600"/>
      <point x="318" y="600" type="curve" smooth="yes"/>
    </contour>
  </outline>
</glyph>
<glyph name="U" format="1">
  <advance width="619"/>
  <unicode hex="0055"/>
  <outline>
    <contour>
      <point x="488" y="639" type="line"/>
      <point x="490" y="232" type="line" smooth="yes"/>
      <point x="490" y="107"/>
      <point x="427" y="41"/>
      <point x="309" y="41" type="curve" smooth="yes"/>
      <point x="191" y="41"/>
      <point x="128" y="109"/>
      <point x="129" y="237" type="curve" smooth="yes"/>
      <point x="131" y="639" type="line"/>
      <point x="79" y="639" type="line"/>
      <point x="80" y="322" type="line"/>
      <point x="79" y="232" type="line" smooth="yes"/>
      <point x="78" y="79"/>
      <point x="158" y="-5"/>
      <point x="306" y="-5" type="curve" smooth="yes"/>
      <point x="456" y="-5"/>
      <point x="542" y="83"/>
      <point x="538" y="236" type="curve"/>
      <point x="539" y="313" type="line"/>
      <point x="540" y="639" type="line"/>
    </contour>
    <contour>
      <point x="497" y="10" type="move" name="ogonek"/>
    </contour>
    <contour>
      <point x="313" y="639" type="move" name="top"/>
    </contour>
  </outline>
</glyph>
<glyph name="a" format="1">
  <advance width="504"/>
  <unicode hex="0061"/>
  <outline>
    <contour>
      <point x="228" y="495" type="line"/>
      <point x="29" y="0" type="line" smooth="yes"/>
      <point x="79" y="0" type="line"/>
      <point x="92" y="47" type="line"/>
      <point x="252" y="442" type="line"/>
      <point x="257" y="442" type="line"/>
      <point x="404" y="45" type="line"/>
      <point x="415" y="0" type="line"/>
      <point x="466" y="0" type="line"/>
      <point x="284" y="495" type="line"/>
    </contour>
    <contour>
      <point x="248" y="184" type="line"/>
      <point x="118" y="185" type="line"/>
      <point x="115" y="144" type="line"/>
      <point x="243" y="144" type="line"/>
      <point x="382" y="144" type="line"/>
      <point x="379" y="185" type="line"/>
    </contour>
    <contour>
      <point x="484" y="8" type="move" name="ogonek"/>
    </contour>
    <contour>
      <point x="256" y="495" type="move" name="top"/>
    </contour>
  </outline>
</glyph>
<glyph name="b" format="1">
  <advance width="464"/>
  <unicode hex="0062"/>
  <outline>
    <contour>
      <point x="98" y="495" type="line"/>
      <point x="122" y="455" type="line"/>
      <point x="157" y="456"/>
      <point x="190" y="456"/>
      <point x="220" y="456" type="curve" smooth="yes"/>
      <point x="289" y="456"/>
      <point x="326" y="427"/>
      <point x="326" y="373" type="curve" smooth="yes"/>
      <point x="326" y="317"/>
      <point x="297" y="284"/>
      <point x="243" y="274" type="curve"/>
      <point x="118" y="277" type="line"/>
      <point x="118" y="233" type="line"/>
      <point x="251" y="235" type="line"/>
      <point x="324" y="227"/>
      <point x="362" y="196"/>
      <point x="362" y="140" type="curve" smooth="yes"/>
      <point x="362" y="73"/>
      <point x="308" y="36"/>
      <point x="211" y="36" type="curve" smooth="yes"/>
      <point x="185" y="36"/>
      <point x="150" y="38"/>
      <point x="124" y="42" type="curve"/>
      <point x="98" y="0" type="line"/>
      <point x="133" y="-2"/>
      <point x="178" y="-2"/>
      <point x="207" y="-2" type="curve" smooth="yes"/>
      <point x="340" y="-2"/>
      <point x="413" y="46"/>
      <point x="413" y="138" type="curve" smooth="yes"/>
      <point x="413" y="208"/>
      <point x="370" y="246"/>
      <point x="298" y="258" type="curve"/>
      <point x="348" y="278"/>
      <point x="378" y="317"/>
      <point x="378" y="378" type="curve" smooth="yes"/>
      <point x="378" y="454"/>
      <point x="323" y="496"/>
      <point x="230" y="496" type="curve"/>
    </contour>
    <contour>
      <point x="98" y="495" type="line"/>
      <point x="99" y="150" type="line"/>
      <point x="98" y="0" type="line"/>
      <point x="146" y="0" type="line"/>
      <point x="145" y="154" type="line"/>
      <point x="147" y="495" type="line"/>
    </contour>
  </outline>
</glyph>
<glyph name="c" format="1">
  <advance width="464"/>
  <unicode hex="0063"/>
  <outline>
    <contour>
      <point x="134" y="499"/>
      <point x="51" y="408"/>
      <point x="51" y="245" type="curve" smooth="yes"/>
      <point x="51" y="85"/>
      <point x="129" y="-5"/>
      <point x="271" y="-5" type="curve" smooth="yes"/>
      <point x="323" y="-5"/>
      <point x="373" y="10"/>
      <point x="418" y="38" type="curve"/>
      <point x="422" y="83" type="line"/>
      <point x="415" y="86" type="line"/>
      <point x="374" y="56"/>
      <point x="322" y="37"/>
      <point x="272" y="37" type="curve" smooth="yes"/>
      <point x="163" y="37"/>
      <point x="102" y="111"/>
      <point x="102" y="248" type="curve" smooth="yes"/>
      <point x="102" y="386"/>
      <point x="164" y="457"/>
      <point x="276" y="457" type="curve" smooth="yes"/>
      <point x="326" y="457"/>
      <point x="372" y="441"/>
      <point x="407" y="413" type="curve"/>
      <point x="414" y="415" type="line"/>
      <point x="425" y="460" type="line"/>
      <point x="385" y="485"/>
      <point x="334" y="499"/>
      <point x="281" y="499" type="curve" smooth="yes"/>
    </contour>
    <contour>
      <point x="263" y="0" type="move" name="bottom"/>
    </contour>
    <contour>
      <point x="261" y="495" type="move" name="top"/>
    </contour>
  </outline>
</glyph>
<glyph name="h" format="1">
  <advance width="592"/>
  <unicode hex="0068"/>
  <outline>
    <contour>
      <point x="445" y="495" type="line"/>
      <point x="446" y="150" type="line"/>
      <point x="445" y="0" type="line"/>
      <point x="494" y="0" type="line"/>
      <point x="492" y="154" type="line"/>
      <point x="494" y="495" type="line"/>
    </contour>
    <contour>
      <point x="98" y="495" type="line"/>
      <point x="99" y="150" type="line"/>
      <point x="98" y="0" type="line"/>
      <point x="147" y="0" type="line"/>
      <point x="145" y="154" type="line"/>
      <point x="147" y="495" type="line"/>
    </contour>
    <contour>
      <point x="139" y="228" type="line"/>
      <point x="290" y="228" type="line"/>
      <point x="455" y="228" type="line"/>
      <point x="455" y="272" type="line"/>
      <point x="295" y="272" type="line"/>
      <point x="139" y="272" type="line"/>
    </contour>
    <contour>
      <point x="275" y="248" type="move" name="center"/>
    </contour>
    <contour>
      <point x="297" y="495" type="move" name="top"/>
    </contour>
  </outline>
</glyph>
<glyph name="k" format="1">
  <advance width="474"/>
  <unicode hex="006B"/>
  <outline>
    <contour>
      <point x="381" y="495" type="line"/>
      <point x="347" y="454" type="line"/>
      <point x="161" y="264" type="line"/>
      <point x="161" y="260" type="line"/>
      <point x="235" y="169"/>
      <point x="318" y="80"/>
      <point x="401" y="-4" type="curve"/>
      <point x="408" y="-7" type="line"/>
      <point x="424" y="-5"/>
      <point x="441" y="-2"/>
      <point x="454" y="4" type="curve"/>
      <point x="455" y="11" type="line"/>
      <point x="372" y="90"/>
      <point x="289" y="177"/>
      <point x="217" y="263" type="curve"/>
      <point x="442" y="495" type="line"/>
    </contour>
    <contour>
      <point x="98" y="495" type="line"/>
      <point x="99" y="150" type="line"/>
      <point x="98" y="0" type="line"/>
      <point x="147" y="0" type="line"/>
      <point x="145" y="154" type="line"/>
      <point x="147" y="495" type="line"/>
    </contour>
    <contour>
      <point x="232" y="0" type="move" name="bottom"/>
    </contour>
    <contour>
      <point x="219" y="495" type="move" name="top"/>
    </contour>
  </outline>
</glyph>
<glyph name="l" format="1">
  <advance width="371"/>
  <unicode hex="006C"/>
  <outline>
    <contour>
      <point x="97" y="495" type="line"/>
      <point x="98" y="150" type="line"/>
      <point x="97" y="0" type="line"/>
      <point x="146" y="0" type="line"/>
      <point x="144" y="154" type="line"/>
      <point x="146" y="495" type="line"/>
    </contour>
    <contour>
      <point x="127" y="42" type="line"/>
      <point x="123" y="4" type="line"/>
      <point x="127" y="0" type="line"/>
      <point x="346" y="0" type="line"/>
      <point x="350" y="37" type="line"/>
      <point x="347" y="42" type="line"/>
    </contour>
    <contour>
      <point x="193" y="0" type="move" name="bottom"/>
    </contour>
    <contour>
      <point x="165" y="495" type="move" name="top"/>
    </contour>
  </outline>
</glyph>
<glyph name="n" format="1">
  <advance width="592"/>
  <unicode hex="006E"/>
  <outline>
    <contour>
      <point x="448" y="493" type="line"/>
      <point x="448" y="81" type="line"/>
      <point x="443" y="81" type="line"/>
      <point x="150" y="495" type="line"/>
      <point x="99" y="495" type="line"/>
      <point x="99" y="146" type="line"/>
      <point x="98" y="0" type="line"/>
      <point x="144" y="0" type="line"/>
      <point x="143" y="160" type="line"/>
      <point x="144" y="413" type="line"/>
      <point x="148" y="413" type="line"/>
      <point x="440" y="0" type="line"/>
      <point x="492" y="0" type="line"/>
      <point x="491" y="143" type="line"/>
      <point x="494" y="496" type="line"/>
    </contour>
    <contour>
      <point x="293" y="0" type="move" name="bottom"/>
    </contour>
    <contour>
      <point x="294" y="495" type="move" name="top"/>
    </contour>
  </outline>
</glyph>
<glyph name="p" format="1">
  <advance width="452"/>
  <unicode hex="0070"/>
  <outline>
    <contour>
      <point x="98" y="495" type="line"/>
      <point x="123" y="455" type="line"/>
      <point x="235" y="456" type="line"/>
      <point x="311" y="453"/>
      <point x="350" y="417"/>
      <point x="350" y="349" type="curve" smooth="yes"/>
      <point x="350" y="275"/>
      <point x="310" y="230"/>
      <point x="236" y="220" type="curve"/>
      <point x="118" y="222" type="line"/>
      <point x="118" y="180" type="line"/>
      <point x="212" y="180" type="line"/>
      <point x="331" y="180"/>
      <point x="402" y="243"/>
      <point x="402" y="353" type="curve" smooth="yes"/>
      <point x="402" y="445"/>
      <point x="345" y="496"/>
      <point x="244" y="496" type="curve"/>
    </contour>
    <contour>
      <point x="98" y="495" type="line"/>
      <point x="99" y="150" type="line"/>
      <point x="98" y="0" type="line"/>
      <point x="147" y="0" type="line"/>
      <point x="145" y="154" type="line"/>
      <point x="147" y="495" type="line"/>
    </contour>
  </outline>
</glyph>
<glyph name="r" format="1">
  <advance width="482"/>
  <unicode hex="0072"/>
  <outline>
    <contour>
      <point x="98" y="495" type="line"/>
      <point x="122" y="454" type="line"/>
      <point x="236" y="456" type="line"/>
      <point x="311" y="452"/>
      <point x="350" y="418"/>
      <point x="350" y="352" type="curve" smooth="yes"/>
      <point x="350" y="289"/>
      <point x="315" y="247"/>
      <point x="250" y="230" type="curve"/>
      <point x="117" y="233" type="line"/>
      <point x="118" y="190" type="line"/>
      <point x="252" y="191" type="line"/>
      <point x="346" y="212"/>
      <point x="402" y="274"/>
      <point x="402" y="356" type="curve" smooth="yes"/>
      <point x="402" y="446"/>
      <point x="345" y="496"/>
      <point x="244" y="496" type="curve"/>
    </contour>
    <contour>
      <point x="98" y="495" type="line"/>
      <point x="99" y="150" type="line"/>
      <point x="98" y="0" type="line"/>
      <point x="147" y="0" type="line"/>
      <point x="145" y="154" type="line"/>
      <point x="147" y="495" type="line"/>
    </contour>
    <contour>
      <point x="232" y="217" type="line"/>
      <point x="276" y="142"/>
      <point x="326" y="69"/>
      <point x="377" y="-1" type="curve"/>
      <point x="387" y="-6" type="line"/>
      <point x="402" y="-4"/>
      <point x="416" y="-1"/>
      <point x="430" y="5" type="curve"/>
      <point x="431" y="12" type="line"/>
      <point x="376" y="79"/>
      <point x="326" y="147"/>
      <point x="280" y="217" type="curve"/>
    </contour>
    <contour>
      <point x="223" y="0" type="move" name="bottom"/>
    </contour>
    <contour>
      <point x="223" y="495" type="move" name="top"/>
    </contour>
  </outline>
</glyph>
<glyph name="u" format="1">
  <advance width="545"/>
  <unicode hex="0075"/>
  <outline>
    <contour>
      <point x="415" y="495" type="line"/>
      <point x="417" y="181" type="line" smooth="yes"/>
      <point x="417" y="88"/>
      <point x="367" y="38"/>
      <point x="272" y="38" type="curve" smooth="yes"/>
      <point x="177" y="38"/>
      <point x="127" y="88"/>
      <point x="128" y="181" type="curve" smooth="yes"/>
      <point x="131" y="495" type="line"/>
      <point x="82" y="495" type="line"/>
      <point x="82" y="248" type="line"/>
      <point x="81" y="175" type="line" smooth="yes"/>
      <point x="79" y="60"/>
      <point x="147" y="-4"/>
      <point x="271" y="-4" type="curve" smooth="yes"/>
      <point x="394" y="-4"/>
      <point x="466" y="61"/>
      <point x="463" y="175" type="curve"/>
      <point x="463" y="242" type="line"/>
      <point x="465" y="495" type="line"/>
    </contour>
    <contour>
      <point x="437" y="8" type="move" name="ogonek"/>
    </contour>
    <contour>
      <point x="275" y="495" type="move" name="top"/>
    </contour>
  </outline>
</glyph>
<glyph name="y" format="1">
  <advance width="461"/>
  <unicode hex="0079"/>
  <outline>
    <contour>
      <point x="374" y="495" type="line"/>
      <point x="362" y="468" type="line"/>
      <point x="226" y="237" type="line"/>
      <point x="221" y="237" type="line"/>
      <point x="96" y="470" type="line"/>
      <point x="86" y="495" type="line"/>
      <point x="32" y="495" type="line"/>
      <point x="213" y="153" type="line"/>
      <point x="230" y="153" type="line"/>
      <point x="427" y="495" type="line" smooth="yes"/>
    </contour>
    <contour>
      <point x="199" y="209" type="line"/>
      <point x="199" y="146" type="line"/>
      <point x="198" y="0" type="line"/>
      <point x="247" y="0" type="line"/>
      <point x="245" y="146" type="line"/>
      <point x="246" y="209" type="line"/>
    </contour>
    <contour>
      <point x="234" y="495" type="move" name="top"/>
    </contour>
  </outline>
</glyph>
<glyph name="braceleft" format="1">
  <advance width="285"/>
  <unicode hex="007B"/>
  <outline>
    <contour>
      <point x="153" y="654"/>
      <point x="117" y="617"/>
      <point x="117" y="544" type="curve" smooth="yes"/>
      <point x="117" y="486"/>
      <point x="136" y="408"/>
      <point x="136" y="363" type="curve" smooth="yes"/>
      <point x="136" y="311"/>
      <point x="109" y="282"/>
      <point x="49" y="272" type="curve"/>
      <point x="49" y="242" type="line"/>
      <point x="109" y="233"/>
      <point x="136" y="204"/>
      <point x="136" y="151" type="curve" smooth="yes"/>
      <point x="136" y="106"/>
      <point x="117" y="29"/>
      <point x="117" y="-29" type="curve" smooth="yes"/>
      <point x="117" y="-102"/>
      <point x="153" y="-139"/>
      <point x="222" y="-139" type="curve" smooth="yes"/>
      <point x="239" y="-139"/>
      <point x="253" y="-137"/>
      <point x="267" y="-133" type="curve"/>
      <point x="270" y="-128" type="line"/>
      <point x="264" y="-98" type="line"/>
      <point x="249" y="-101"/>
      <point x="239" y="-103"/>
      <point x="226" y="-103" type="curve" smooth="yes"/>
      <point x="181" y="-103"/>
      <point x="160" y="-78"/>
      <point x="160" y="-23" type="curve" smooth="yes"/>
      <point x="160" y="30"/>
      <point x="180" y="106"/>
      <point x="180" y="153" type="curve" smooth="yes"/>
      <point x="180" y="203"/>
      <point x="157" y="238"/>
      <point x="113" y="256" type="curve"/>
      <point x="113" y="259" type="line"/>
      <point x="157" y="277"/>
      <point x="180" y="311"/>
      <point x="180" y="362" type="curve" smooth="yes"/>
      <point x="180" y="408"/>
      <point x="160" y="485"/>
      <point x="160" y="537" type="curve" smooth="yes"/>
      <point x="160" y="593"/>
      <point x="181" y="617"/>
      <point x="226" y="617" type="curve" smooth="yes"/>
      <point x="239" y="617"/>
      <point x="249" y="615"/>
      <point x="264" y="612" type="curve"/>
      <point x="270" y="643" type="line"/>
      <point x="267" y="648" type="line"/>
      <point x="253" y="651"/>
      <point x="239" y="654"/>
      <point x="222" y="654" type="curve" smooth="yes"/>
    </contour>
  </outline>
</glyph>
<glyph name="asciitilde" format="1">
  <advance width="480"/>
  <unicode hex="007E"/>
  <outline>
    <contour>
      <point x="180" y="267"/>
      <point x="296" y="225"/>
      <point x="343" y="221" type="curve"/>
      <point x="351" y="223" type="line"/>
      <point x="421" y="288" type="line"/>
      <point x="421" y="294" type="line"/>
      <point x="406" y="313" type="line"/>
      <point x="399" y="313" type="line"/>
      <point x="366" y="284"/>
      <point x="348" y="264"/>
      <point x="333" y="264" type="curve"/>
      <point x="302" y="264"/>
      <point x="184" y="305"/>
      <point x="137" y="312" type="curve"/>
      <point x="129" y="308" type="line"/>
      <point x="60" y="244" type="line"/>
      <point x="60" y="237" type="line"/>
      <point x="75" y="219" type="line"/>
      <point x="83" y="219" type="line"/>
      <point x="114" y="247"/>
      <point x="133" y="267"/>
      <point x="148" y="267" type="curve"/>
    </contour>
  </outline>
</glyph>
<glyph name="brokenbar" format="1">
  <advance width="317"/>
  <unicode hex="00A6"/>
  <outline>
    <contour>
      <point x="137" y="791" type="line"/>
      <point x="137" y="370" type="line"/>
      <point x="142" y="366" type="line"/>
      <point x="179" y="370" type="line"/>
      <point x="180" y="790" type="line"/>
      <point x="176" y="794" type="line"/>
    </contour>
    <contour>
      <point x="137" y="155" type="line"/>
      <point x="137" y="-257" type="line"/>
      <point x="142" y="-264" type="line"/>
      <point x="179" y="-262" type="line"/>
      <point x="179" y="153" type="line"/>
      <point x="174" y="160" type="line"/>
    </contour>
  </outline>
</glyph>
<glyph name="registered" format="1">
  <advance width="436"/>
  <unicode hex="00AE"/>
  <outline>
    <contour>
      <point x="110" y="702"/>
      <point x="39" y="631"/>
      <point x="39" y="524" type="curve" smooth="yes"/>
      <point x="39" y="415"/>
      <point x="110" y="344"/>
      <point x="218" y="344" type="curve" smooth="yes"/>
      <point x="326" y="344"/>
      <point x="397" y="415"/>
      <point x="397" y="524" type="curve" smooth="yes"/>
      <point x="397" y="631"/>
      <point x="326" y="702"/>
      <point x="218" y="702" type="curve" smooth="yes"/>
    </contour>
    <contour>
      <point x="157" y="627" type="line"/>
      <point x="157" y="492" type="line"/>
      <point x="157" y="434" type="line"/>
      <point x="186" y="434" type="line"/>
      <point x="185" y="495" type="line"/>
      <point x="187" y="627" type="line"/>
    </contour>
    <contour>
      <point x="211" y="518" type="line"/>
      <point x="228" y="490"/>
      <point x="245" y="461"/>
      <point x="266" y="433" type="curve"/>
      <point x="269" y="431" type="line"/>
      <point x="277" y="432"/>
      <point x="290" y="433"/>
      <point x="297" y="436" type="curve"/>
      <point x="298" y="440" type="line"/>
      <point x="277" y="465"/>
      <point x="258" y="491"/>
      <point x="241" y="518" type="curve"/>
    </contour>
    <contour>
      <point x="312" y="679"/>
      <point x="375" y="618"/>
      <point x="375" y="524" type="curve" smooth="yes"/>
      <point x="375" y="429"/>
      <point x="312" y="367"/>
      <point x="219" y="367" type="curve" smooth="yes"/>
      <point x="125" y="367"/>
      <point x="62" y="429"/>
      <point x="62" y="524" type="curve" smooth="yes"/>
      <point x="62" y="618"/>
      <point x="125" y="679"/>
      <point x="219" y="679" type="curve" smooth="yes"/>
    </contour>
    <contour>
      <point x="157" y="627" type="line"/>
      <point x="173" y="602" type="line"/>
      <point x="215" y="604" type="line"/>
      <point x="242" y="603"/>
      <point x="256" y="590"/>
      <point x="256" y="568" type="curve" smooth="yes"/>
      <point x="256" y="548"/>
      <point x="245" y="535"/>
      <point x="223" y="528" type="curve"/>
      <point x="168" y="530" type="line"/>
      <point x="168" y="504" type="line"/>
      <point x="224" y="504" type="line"/>
      <point x="263" y="512"/>
      <point x="286" y="539"/>
      <point x="286" y="570" type="curve" smooth="yes"/>
      <point x="286" y="608"/>
      <point x="264" y="627"/>
      <point x="223" y="627" type="curve"/>
    </contour>
  </outline>
</glyph>
<glyph name="macron" format="1">
  <advance width="390"/>
  <unicode hex="00AF"/>
  <outline>
    <contour>
      <point x="52" y="621" type="line"/>
      <point x="49" y="589" type="line"/>
      <point x="53" y="584" type="line"/>
      <point x="339" y="584" type="line"/>
      <point x="342" y="617" type="line"/>
      <point x="338" y="621" type="line"/>
    </contour>
    <contour>
      <point x="195" y="455" type="move" name="_top"/>
    </contour>
  </outline>
</glyph>
<glyph name="degree" format="1">
  <advance width="294"/>
  <unicode hex="00B0"/>
  <outline>
    <contour>
      <point x="78" y="645"/>
      <point x="23" y="591"/>
      <point x="23" y="522" type="curve" smooth="yes"/>
      <point x="23" y="454"/>
      <point x="78" y="401"/>
      <point x="147" y="401" type="curve" smooth="yes"/>
      <point x="216" y="401"/>
      <point x="271" y="454"/>
      <point x="271" y="522" type="curve" smooth="yes"/>
      <point x="271" y="591"/>
      <point x="216" y="645"/>
      <point x="147" y="645" type="curve" smooth="yes"/>
    </contour>
    <contour>
      <point x="197" y="615"/>
      <point x="240" y="573"/>
      <point x="240" y="522" type="curve" smooth="yes"/>
      <point x="240" y="473"/>
      <point x="197" y="431"/>
      <point x="147" y="431" type="curve" smooth="yes"/>
      <point x="97" y="431"/>
      <point x="53" y="473"/>
      <point x="53" y="522" type="curve" smooth="yes"/>
      <point x="53" y="573"/>
      <point x="97" y="615"/>
      <point x="147" y="615" type="curve" smooth="yes"/>
    </contour>
  </outline>
</glyph>
<glyph name="cedilla" format="1">
  <advance width="390"/>
  <unicode hex="00B8"/>
  <outline>
    <contour>
      <point x="182" y="15" type="line"/>
      <point x="158" y="-68" type="line"/>
      <point x="203" y="-96" type="line" smooth="yes"/>
      <point x="217" y="-104"/>
      <point x="226" y="-111"/>
      <point x="226" y="-125" type="curve" smooth="yes"/>
      <point x="226" y="-144"/>
      <point x="211" y="-155"/>
      <point x="190" y="-155" type="curve" smooth="yes"/>
      <point x="166" y="-155"/>
      <point x="152" y="-142"/>
      <point x="137" y="-124" type="curve"/>
      <point x="133" y="-125" type="line"/>
      <point x="126" y="-154" type="line"/>
      <point x="139" y="-170"/>
      <point x="160" y="-186"/>
      <point x="192" y="-186" type="curve" smooth="yes"/>
      <point x="232" y="-186"/>
      <point x="263" y="-162"/>
      <point x="263" y="-126" type="curve" smooth="yes"/>
      <point x="263" y="-104"/>
      <point x="253" y="-88"/>
      <point x="227" y="-73" type="curve" smooth="yes"/>
      <point x="195" y="-53" type="line"/>
      <point x="216" y="15" type="line"/>
    </contour>
    <contour>
      <point x="190" y="0" type="move" name="_bottom"/>
    </contour>
  </outline>
</glyph>
<glyph name="multiply" format="1">
  <advance width="480"/>
  <unicode hex="00D7"/>
  <outline>
    <contour>
      <point x="240" y="295" type="line"/>
      <point x="110" y="424" type="line"/>
      <point x="84" y="402" type="line"/>
      <point x="84" y="395" type="line"/>
      <point x="212" y="268" type="line"/>
      <point x="84" y="139" type="line"/>
      <point x="84" y="133" type="line"/>
      <point x="110" y="110" type="line"/>
      <point x="240" y="240" type="line"/>
      <point x="369" y="110" type="line"/>
      <point x="395" y="133" type="line"/>
      <point x="395" y="139" type="line"/>
      <point x="267" y="268" type="line"/>
      <point x="395" y="395" type="line"/>
      <point x="395" y="402" type="line"/>
      <point x="369" y="424" type="line"/>
    </contour>
  </outline>
</glyph>
<glyph name="germandbls" format="1">
  <advance width="543"/>
  <unicode hex="00DF"/>
  <outline>
    <contour>
      <point x="157" y="498"/>
      <point x="82" y="431"/>
      <point x="82" y="330" type="curve" smooth="yes"/>
      <point x="82" y="146" type="line"/>
      <point x="81" y="0" type="line"/>
      <point x="130" y="0" type="line"/>
      <point x="128" y="154" type="line"/>
      <point x="129" y="330" type="line" smooth="yes"/>
      <point x="129" y="408"/>
      <point x="185" y="457"/>
      <point x="274" y="457" type="curve" smooth="yes"/>
      <point x="315" y="457"/>
      <point x="353" y="448"/>
      <point x="398" y="426" type="curve"/>
      <point x="256" y="262" type="line"/>
      <point x="259" y="249" type="line"/>
      <point x="378" y="228"/>
      <point x="445" y="194"/>
      <point x="445" y="131" type="curve" smooth="yes"/>
      <point x="445" y="78"/>
      <point x="402" y="37"/>
      <point x="337" y="37" type="curve" smooth="yes"/>
      <point x="301" y="37"/>
      <point x="252" y="52"/>
      <point x="215" y="81" type="curve"/>
      <point x="209" y="79" type="line"/>
      <point x="204" y="31" type="line"/>
      <point x="243" y="8"/>
      <point x="296" y="-4"/>
      <point x="340" y="-4" type="curve" smooth="yes"/>
      <point x="429" y="-4"/>
      <point x="497" y="47"/>
      <point x="497" y="130" type="curve" smooth="yes"/>
      <point x="497" y="209"/>
      <point x="436" y="252"/>
      <point x="319" y="278" type="curve"/>
      <point x="462" y="442" type="line"/>
      <point x="458" y="453" type="line"/>
      <point x="390" y="484"/>
      <point x="336" y="498"/>
      <point x="277" y="498" type="curve" smooth="yes"/>
    </contour>
  </outline>
</glyph>
<glyph name="oslash" format="1">
  <advance width="555"/>
  <unicode hex="00F8"/>
  <outline>
    <contour>
      <point x="405" y="560" type="line"/>
      <point x="104" y="-75" type="line"/>
      <point x="106" y="-82" type="line"/>
      <point x="137" y="-94" type="line"/>
      <point x="438" y="541" type="line"/>
      <point x="434" y="548" type="line"/>
    </contour>
    <component base="o"/>
    <contour>
      <point x="258" y="495" type="move" name="top"/>
    </contour>
  </outline>
</glyph>
<glyph name="aogonek" format="1">
  <advance width="504"/>
  <unicode hex="0105"/>
  <outline>
    <contour>
      <point x="423" y="0" type="line"/>
      <point x="377" y="-72"/>
      <point x="365" y="-102"/>
      <point x="365" y="-130" type="curve" smooth="yes"/>
      <point x="365" y="-172"/>
      <point x="396" y="-196"/>
      <point x="432" y="-196" type="curve" smooth="yes"/>
      <point x="465" y="-196"/>
      <point x="491" y="-175"/>
      <point x="515" y="-141" type="curve"/>
      <point x="504" y="-110" type="line"/>
      <point x="501" y="-110" type="line"/>
      <point x="482" y="-140"/>
      <point x="462" y="-158"/>
      <point x="438" y="-158" type="curve" smooth="yes"/>
      <point x="419" y="-158"/>
      <point x="403" y="-148"/>
      <point x="403" y="-121" type="curve" smooth="yes"/>
      <point x="403" y="-100"/>
      <point x="410" y="-74"/>
      <point x="460" y="0" type="curve"/>
    </contour>
    <component base="a"/>
  </outline>
</glyph>
<glyph name="hbar" format="1">
  <advance width="616"/>
  <unicode hex="0127"/>
  <outline>
    <contour>
      <point x="56" y="398" type="line"/>
      <point x="53" y="368" type="line"/>
      <point x="56" y="364" type="line"/>
      <point x="561" y="364" type="line"/>
      <point x="564" y="395" type="line"/>
      <point x="560" y="398" type="line"/>
    </contour>
    <component base="h" xOffset="10"/>
  </outline>
</glyph>
<glyph name="Iogonek" format="1">
  <advance width="255"/>
  <unicode hex="012E"/>
  <outline>
    <contour>
      <point x="101" y="0" type="line"/>
      <point x="54" y="-67"/>
      <point x="34" y="-104"/>
      <point x="34" y="-135" type="curve" smooth="yes"/>
      <point x="34" y="-172"/>
      <point x="58" y="-197"/>
      <point x="96" y="-197" type="curve" smooth="yes"/>
      <point x="123" y="-197"/>
      <point x="143" y="-184"/>
      <point x="161" y="-158" type="curve"/>
      <point x="150" y="-126" type="line"/>
      <point x="145" y="-126" type="line"/>
      <point x="134" y="-147"/>
      <point x="120" y="-159"/>
      <point x="102" y="-159" type="curve" smooth="yes"/>
      <point x="83" y="-159"/>
      <point x="71" y="-148"/>
      <point x="71" y="-128" type="curve" smooth="yes"/>
      <point x="71" y="-105"/>
      <point x="89" y="-70"/>
      <point x="137" y="0" type="curve"/>
    </contour>
    <component base="I"/>
  </outline>
</glyph>
<glyph name="iogonek" format="1">
  <advance width="249"/>
  <unicode hex="012F"/>
  <outline>
    <contour>
      <point x="98" y="0" type="line"/>
      <point x="51" y="-67"/>
      <point x="31" y="-104"/>
      <point x="31" y="-135" type="curve" smooth="yes"/>
      <point x="31" y="-172"/>
      <point x="55" y="-197"/>
      <point x="93" y="-197" type="curve" smooth="yes"/>
      <point x="120" y="-197"/>
      <point x="140" y="-184"/>
      <point x="158" y="-158" type="curve"/>
      <point x="147" y="-126" type="line"/>
      <point x="142" y="-126" type="line"/>
      <point x="131" y="-147"/>
      <point x="117" y="-159"/>
      <point x="99" y="-159" type="curve" smooth="yes"/>
      <point x="80" y="-159"/>
      <point x="68" y="-148"/>
      <point x="68" y="-128" type="curve" smooth="yes"/>
      <point x="68" y="-105"/>
      <point x="86" y="-70"/>
      <point x="134" y="0" type="curve"/>
    </contour>
    <component base="i"/>
  </outline>
</glyph>
<glyph name="lslash" format="1">
  <advance width="390"/>
  <unicode hex="0142"/>
  <outline>
    <contour>
      <point x="28" y="236" type="line"/>
      <point x="37" y="206" type="line"/>
      <point x="44" y="202" type="line"/>
      <point x="287" y="321" type="line"/>
      <point x="277" y="352" type="line"/>
      <point x="272" y="354" type="line"/>
    </contour>
    <component base="l" xOffset="17"/>
  </outline>
</glyph>
<glyph name="Eng" format="1">
  <advance width="677"/>
  <unicode hex="014A"/>
  <outline>
    <contour>
      <point x="527" y="636" type="line"/>
      <point x="527" y="88" type="line"/>
      <point x="521" y="88" type="line"/>
      <point x="156" y="639" type="line"/>
      <point x="102" y="639" type="line"/>
      <point x="104" y="190" type="line"/>
      <point x="101" y="0" type="line"/>
      <point x="150" y="0" type="line"/>
      <point x="148" y="205" type="line"/>
      <point x="149" y="552" type="line"/>
      <point x="155" y="552" type="line"/>
      <point x="519" y="3" type="line"/>
      <point x="506" y="-43"/>
      <point x="470" y="-77"/>
      <point x="401" y="-116" type="curve"/>
      <point x="401" y="-124" type="line"/>
      <point x="422" y="-153" type="line"/>
      <point x="533" y="-95"/>
      <point x="573" y="-41"/>
      <point x="573" y="48" type="curve" smooth="yes"/>
      <point x="573" y="182" type="line"/>
      <point x="577" y="640" type="line"/>
    </contour>
  </outline>
</glyph>
<glyph name="oe" format="1">
  <advance width="729"/>
  <unicode hex="0153"/>
  <outline>
    <contour>
      <point x="145" y="504"/>
      <point x="51" y="408"/>
      <point x="51" y="244" type="curve" smooth="yes"/>
      <point x="51" y="85"/>
      <point x="140" y="-9"/>
      <point x="299" y="-9" type="curve" smooth="yes"/>
      <point x="346" y="-9"/>
      <point x="397" y="0"/>
      <point x="445" y="0" type="curve" smooth="yes"/>
      <point x="687" y="0" type="line"/>
      <point x="692" y="38" type="line"/>
      <point x="688" y="43" type="line"/>
      <point x="561" y="41" type="line"/>
      <point x="453" y="41" type="line"/>
      <point x="453" y="149" type="line"/>
      <point x="453" y="233" type="line"/>
      <point x="546" y="234" type="line"/>
      <point x="642" y="232" type="line"/>
      <point x="647" y="271" type="line"/>
      <point x="643" y="277" type="line"/>
      <point x="549" y="275" type="line"/>
      <point x="454" y="276" type="line"/>
      <point x="454" y="454" type="line"/>
      <point x="570" y="454" type="line"/>
      <point x="686" y="451" type="line"/>
      <point x="691" y="489" type="line"/>
      <point x="687" y="495" type="line"/>
      <point x="445" y="495" type="line" smooth="yes"/>
      <point x="399" y="495"/>
      <point x="359" y="504"/>
      <point x="310" y="504" type="curve" smooth="yes"/>
    </contour>
    <contour>
      <point x="342" y="460"/>
      <point x="381" y="453"/>
      <point x="394" y="450" type="curve" smooth="yes"/>
      <point x="402" y="448"/>
      <point x="404" y="442"/>
      <point x="404" y="422" type="curve" smooth="yes"/>
      <point x="407" y="66" type="line" smooth="yes"/>
      <point x="407" y="52"/>
      <point x="403" y="46"/>
      <point x="386" y="42" type="curve" smooth="yes"/>
      <point x="373" y="38"/>
      <point x="336" y="33"/>
      <point x="304" y="33" type="curve" smooth="yes"/>
      <point x="169" y="33"/>
      <point x="102" y="108"/>
      <point x="102" y="247" type="curve" smooth="yes"/>
      <point x="102" y="387"/>
      <point x="173" y="460"/>
      <point x="307" y="460" type="curve" smooth="yes"/>
    </contour>
    <contour>
      <point x="456" y="495" type="move" name="top"/>
    </contour>
  </outline>
</glyph>
<glyph name="tbar" format="1">
  <advance width="433"/>
  <unicode hex="0167"/>
  <outline>
    <contour>
      <point x="97" y="258" type="line"/>
      <point x="94" y="226" type="line"/>
      <point x="98" y="222" type="line"/>
      <point x="340" y="222" type="line"/>
      <point x="343" y="253" type="line"/>
      <point x="338" y="258" type="line"/>
    </contour>
    <component base="t"/>
  </outline>
</glyph>
<glyph name="oogonek" format="1">
  <advance width="555"/>
  <unicode hex="01EB"/>
  <outline>
    <contour>
      <point x="348" y="33" type="line"/>
      <point x="286" y="-61" type="line" smooth="yes"/>
      <point x="272" y="-82"/>
      <point x="265" y="-104"/>
      <point x="265" y="-124" type="curve" smooth="yes"/>
      <point x="265" y="-168"/>
      <point x="293" y="-197"/>
      <point x="337" y="-197" type="curve" smooth="yes"/>
      <point x="372" y="-197"/>
      <point x="404" y="-176"/>
      <point x="434" y="-142" type="curve"/>
      <point x="422" y="-114" type="line"/>
      <point x="419" y="-114" type="line"/>
      <point x="395" y="-144"/>
      <point x="368" y="-160"/>
      <point x="342" y="-160" type="curve" smooth="yes"/>
      <point x="316" y="-160"/>
      <point x="301" y="-144"/>
      <point x="301" y="-120" type="curve" smooth="yes"/>
      <point x="301" y="-105"/>
      <point x="307" y="-88"/>
      <point x="320" y="-68" type="curve" smooth="yes"/>
      <point x="388" y="38" type="line"/>
    </contour>
    <component base="o"/>
  </outline>
</glyph>
<glyph name="breve" format="1">
  <advance width="390"/>
  <unicode hex="02D8"/>
  <outline>
    <contour>
      <point x="282" y="656" type="line"/>
      <point x="271" y="594"/>
      <point x="243" y="564"/>
      <point x="195" y="564" type="curve" smooth="yes"/>
      <point x="147" y="564"/>
      <point x="118" y="594"/>
      <point x="107" y="656" type="curve"/>
      <point x="98" y="656" type="line"/>
      <point x="80" y="635" type="line"/>
      <point x="94" y="564"/>
      <point x="129" y="524"/>
      <point x="194" y="524" type="curve" smooth="yes"/>
      <point x="258" y="524"/>
      <point x="294" y="563"/>
      <point x="309" y="635" type="curve"/>
      <point x="291" y="656" type="line"/>
    </contour>
    <contour>
      <point x="195" y="455" type="move" name="_top"/>
    </contour>
  </outline>
</glyph>
<glyph name="ring" format="1">
  <advance width="390"/>
  <unicode hex="02DA"/>
  <outline>
    <contour>
      <point x="146" y="683"/>
      <point x="116" y="652"/>
      <point x="116" y="607" type="curve" smooth="yes"/>
      <point x="116" y="558"/>
      <point x="151" y="530"/>
      <point x="192" y="530" type="curve" smooth="yes"/>
      <point x="234" y="530"/>
      <point x="271" y="558"/>
      <point x="271" y="608" type="curve" smooth="yes"/>
      <point x="271" y="648"/>
      <point x="244" y="683"/>
      <point x="194" y="683" type="curve" smooth="yes"/>
    </contour>
    <contour>
      <point x="226" y="653"/>
      <point x="242" y="633"/>
      <point x="242" y="606" type="curve" smooth="yes"/>
      <point x="242" y="576"/>
      <point x="220" y="560"/>
      <point x="194" y="560" type="curve" smooth="yes"/>
      <point x="167" y="560"/>
      <point x="146" y="577"/>
      <point x="146" y="608" type="curve" smooth="yes"/>
      <point x="146" y="635"/>
      <point x="163" y="653"/>
      <point x="193" y="653" type="curve" smooth="yes"/>
    </contour>
    <contour>
      <point x="195" y="455" type="move" name="_top"/>
    </contour>
  </outline>
</glyph>
<glyph name="hungarumlaut" format="1">
  <advance width="390"/>
  <unicode hex="02DD"/>
  <outline>
    <contour>
      <point x="196" y="518" type="line"/>
      <point x="203" y="518" type="line"/>
      <point x="252" y="563"/>
      <point x="300" y="609"/>
      <point x="347" y="657" type="curve"/>
      <point x="348" y="664" type="line"/>
      <point x="324" y="683" type="line"/>
      <point x="317" y="683" type="line"/>
      <point x="272" y="633"/>
      <point x="226" y="585"/>
      <point x="177" y="537" type="curve"/>
    </contour>
    <contour>
      <point x="60" y="518" type="line"/>
      <point x="67" y="518" type="line"/>
      <point x="116" y="563"/>
      <point x="164" y="609"/>
      <point x="211" y="657" type="curve"/>
      <point x="212" y="664" type="line"/>
      <point x="188" y="683" type="line"/>
      <point x="181" y="683" type="line"/>
      <point x="136" y="633"/>
      <point x="90" y="585"/>
      <point x="41" y="537" type="curve"/>
    </contour>
    <contour>
      <point x="156" y="455" type="move" name="_top"/>
    </contour>
  </outline>
</glyph>
<glyph name="commaaccentcomb" format="1">
  <advance width="238"/>
  <unicode hex="0326"/>
  <outline>
    <component base="comma" xOffset="1" yOffset="-124" xScale="0.96" yScale="0.96"/>
    <contour>
      <point x="106" y="0" type="move" name="_bottom"/>
    </contour>
  </outline>
</glyph>
<glyph name="endash" format="1">
  <advance width="485"/>
  <unicode hex="2013"/>
  <outline>
    <contour>
      <point x="-12" y="275" type="line"/>
      <point x="-15" y="240" type="line"/>
      <point x="-11" y="235" type="line"/>
      <point x="497" y="235" type="line"/>
      <point x="500" y="270" type="line"/>
      <point x="495" y="275" type="line"/>
    </contour>
  </outline>
</glyph>
<glyph name="quoteright" format="1">
  <advance width="147"/>
  <unicode hex="2019"/>
  <outline>
    <contour>
      <point x="54" y="629"/>
      <point x="43" y="621"/>
      <point x="36" y="613" type="curve"/>
      <point x="36" y="607" type="line"/>
      <point x="63" y="598"/>
      <point x="74" y="581"/>
      <point x="74" y="559" type="curve" smooth="yes"/>
      <point x="74" y="535"/>
      <point x="61" y="507"/>
      <point x="31" y="476" type="curve"/>
      <point x="31" y="470" type="line"/>
      <point x="54" y="454" type="line"/>
      <point x="97" y="498"/>
      <point x="117" y="537"/>
      <point x="117" y="573" type="curve" smooth="yes"/>
      <point x="117" y="605"/>
      <point x="101" y="627"/>
      <point x="65" y="638" type="curve"/>
    </contour>
  </outline>
</glyph>
<glyph name="dagger" format="1">
  <advance width="472"/>
  <unicode hex="2020"/>
  <outline>
    <contour>
      <point x="216" y="586" type="line"/>
      <point x="216" y="284" type="line"/>
      <point x="216" y="-89" type="line"/>
      <point x="220" y="-94" type="line"/>
      <point x="255" y="-93" type="line"/>
      <point x="255" y="286" type="line"/>
      <point x="256" y="586" type="line"/>
      <point x="252" y="589" type="line"/>
    </contour>
    <contour>
      <point x="47" y="399" type="line"/>
      <point x="44" y="365" type="line"/>
      <point x="48" y="360" type="line"/>
      <point x="427" y="360" type="line"/>
      <point x="430" y="394" type="line"/>
      <point x="425" y="399" type="line"/>
    </contour>
  </outline>
</glyph>
<glyph name="Euro" format="1">
  <advance width="493"/>
  <unicode hex="20AC"/>
  <outline>
    <contour>
      <point x="191" y="498"/>
      <point x="114" y="427"/>
      <point x="97" y="299" type="curve"/>
      <point x="143" y="299" type="line"/>
      <point x="157" y="404"/>
      <point x="216" y="460"/>
      <point x="314" y="460" type="curve" smooth="yes"/>
      <point x="358" y="460"/>
      <point x="403" y="446"/>
      <point x="437" y="420" type="curve"/>
      <point x="443" y="421" type="line"/>
      <point x="453" y="458" type="line"/>
      <point x="414" y="483"/>
      <point x="365" y="498"/>
      <point x="317" y="498" type="curve" smooth="yes"/>
    </contour>
    <contour>
      <point x="96" y="299" type="line"/>
      <point x="94" y="280"/>
      <point x="93" y="262"/>
      <point x="93" y="241" type="curve" smooth="yes"/>
      <point x="93" y="217"/>
      <point x="95" y="196"/>
      <point x="98" y="176" type="curve"/>
      <point x="145" y="176" type="line"/>
      <point x="141" y="196"/>
      <point x="139" y="219"/>
      <point x="139" y="244" type="curve" smooth="yes"/>
      <point x="139" y="264"/>
      <point x="140" y="283"/>
      <point x="143" y="299" type="curve"/>
    </contour>
    <contour>
      <point x="98" y="176" type="line"/>
      <point x="117" y="59"/>
      <point x="187" y="-5"/>
      <point x="304" y="-5" type="curve" smooth="yes"/>
      <point x="351" y="-5"/>
      <point x="402" y="11"/>
      <point x="445" y="39" type="curve"/>
      <point x="449" y="75" type="line"/>
      <point x="442" y="79" type="line"/>
      <point x="403" y="50"/>
      <point x="352" y="34"/>
      <point x="306" y="34" type="curve" smooth="yes"/>
      <point x="217" y="34"/>
      <point x="163" y="84"/>
      <point x="145" y="176" type="curve"/>
    </contour>
    <contour>
      <point x="22" y="315" type="line"/>
      <point x="19" y="285" type="line"/>
      <point x="22" y="281" type="line"/>
      <point x="347" y="281" type="line"/>
      <point x="350" y="311" type="line"/>
      <point x="346" y="315" type="line"/>
    </contour>
    <contour>
      <point x="22" y="197" type="line"/>
      <point x="19" y="167" type="line"/>
      <point x="22" y="163" type="line"/>
      <point x="347" y="163" type="line"/>
      <point x="350" y="193" type="line"/>
      <point x="346" y="197" type="line"/>
    </contour>
  </outline>
</glyph>
<glyph name="arrowdown" format="1">
  <advance width="509"/>
  <unicode hex="2193"/>
  <outline>
    <contour>
      <point x="434" y="220" type="line"/>
      <point x="254" y="45" type="line"/>
      <point x="75" y="220" type="line"/>
      <point x="65" y="220" type="line"/>
      <point x="55" y="190" type="line"/>
      <point x="250" y="-2" type="line"/>
      <point x="259" y="-2" type="line"/>
      <point x="454" y="190" type="line"/>
      <point x="443" y="220" type="line"/>
    </contour>
    <contour>
      <point x="234" y="455" type="line"/>
      <point x="236" y="31" type="line"/>
      <point x="272" y="31" type="line"/>
      <point x="274" y="456" type="line"/>
      <point x="238" y="459" type="line"/>
    </contour>
  </outline>
</glyph>
<glyph name="radical" format="1">
  <advance width="515"/>
  <unicode hex="221A"/>
  <outline>
    <contour>
      <point x="494" y="710" type="line"/>
      <point x="488" y="706" type="line"/>
      <point x="241" y="54" type="line"/>
      <point x="236" y="54" type="line"/>
      <point x="109" y="451" type="line"/>
      <point x="104" y="455" type="line"/>
      <point x="-19" y="455" type="line"/>
      <point x="-21" y="420" type="line"/>
      <point x="-18" y="416" type="line"/>
      <point x="71" y="416" type="line"/>
      <point x="207" y="0" type="line"/>
      <point x="262" y="0" type="line"/>
      <point x="532" y="710" type="line"/>
    </contour>
  </outline>
</glyph>
<glyph name="integral" format="1">
  <advance width="260"/>
  <unicode hex="222B"/>
  <outline>
    <contour>
      <point x="151" y="714"/>
      <point x="101" y="662"/>
      <point x="102" y="568" type="curve"/>
      <point x="103" y="49" type="line" smooth="yes"/>
      <point x="103" y="-25"/>
      <point x="87" y="-59"/>
      <point x="34" y="-114" type="curve"/>
      <point x="34" y="-121" type="line"/>
      <point x="59" y="-142" type="line"/>
      <point x="129" y="-80"/>
      <point x="148" y="-37"/>
      <point x="148" y="52" type="curve" smooth="yes"/>
      <point x="148" y="573" type="line"/>
      <point x="149" y="635"/>
      <point x="174" y="675"/>
      <point x="239" y="675" type="curve" smooth="yes"/>
      <point x="255" y="675"/>
      <point x="277" y="672"/>
      <point x="299" y="664" type="curve"/>
      <point x="304" y="667" type="line"/>
      <point x="308" y="705" type="line"/>
      <point x="287" y="711"/>
      <point x="262" y="714"/>
      <point x="240" y="714" type="curve" smooth="yes"/>
    </contour>
  </outline>
</glyph>
<glyph name="D.ss01" format="1">
  <advance width="563"/>
  <outline>
    <contour>
      <point x="-100" y="467" type="line"/>
      <point x="663" y="467" type="line"/>
      <point x="663" y="495" type="line"/>
      <point x="-100" y="495" type="line"/>
    </contour>
    <contour>
      <point x="-100" y="0" type="line"/>
      <point x="663" y="0" type="line"/>
      <point x="663" y="28" type="line"/>
      <point x="-100" y="28" type="line"/>
    </contour>
    <component base="d" xOffset="7" yOffset="5" xScale="0.98" yScale="0.98"/>
  </outline>
</glyph>
<glyph name="I.ss01" format="1">
  <advance width="249"/>
  <outline>
    <contour>
      <point x="-100" y="467" type="line"/>
      <point x="349" y="467" type="line"/>
      <point x="349" y="495" type="line"/>
      <point x="-100" y="495" type="line"/>
    </contour>
    <contour>
      <point x="-100" y="0" type="line"/>
      <point x="349" y="0" type="line"/>
      <point x="349" y="28" type="line"/>
      <point x="-100" y="28" type="line"/>
    </contour>
    <component base="i" xOffset="1" yOffset="1.518" xScale="1" yScale="1"/>
  </outline>
</glyph>
<glyph name="M.ss01" format="1">
  <advance width="680"/>
  <outline>
    <contour>
      <point x="-100" y="495" type="line"/>
      <point x="-100" y="467" type="line"/>
      <point x="780" y="467" type="line"/>
      <point x="780" y="495" type="line"/>
    </contour>
    <contour>
      <point x="-100" y="28" type="line"/>
      <point x="-100" y="0" type="line"/>
      <point x="780" y="0" type="line"/>
      <point x="780" y="28" type="line"/>
    </contour>
    <contour>
      <point x="494" y="488" type="line"/>
      <point x="466" y="423" type="line"/>
      <point x="340" y="144" type="line"/>
      <point x="335" y="144" type="line"/>
      <point x="215" y="418" type="line"/>
      <point x="187" y="488" type="line"/>
      <point x="133" y="488" type="line"/>
      <point x="79" y="11" type="line"/>
      <point x="121" y="11" type="line"/>
      <point x="135" y="164" type="line"/>
      <point x="164" y="413" type="line"/>
      <point x="168" y="413" type="line"/>
      <point x="315" y="81" type="line"/>
      <point x="356" y="81" type="line"/>
      <point x="508" y="413" type="line"/>
      <point x="512" y="413" type="line"/>
      <point x="541" y="161" type="line"/>
      <point x="555" y="11" type="line"/>
      <point x="597" y="11" type="line"/>
      <point x="547" y="488" type="line"/>
    </contour>
  </outline>
</glyph>
<glyph name="a.sups" format="1">
  <advance width="309"/>
  <outline>
    <contour>
      <point x="122" y="646"/>
      <point x="83" y="632"/>
      <point x="48" y="606" type="curve"/>
      <point x="55" y="574" type="line"/>
      <point x="60" y="572" type="line"/>
      <point x="94" y="598"/>
      <point x="125" y="611"/>
      <point x="151" y="611" type="curve" smooth="yes"/>
      <point x="187" y="611"/>
      <point x="206" y="592"/>
      <point x="206" y="558" type="curve"/>
      <point x="204" y="511" type="line"/>
      <point x="98" y="489" type="line" smooth="yes"/>
      <point x="58" y="481"/>
      <point x="37" y="458"/>
      <point x="37" y="420" type="curve" smooth="yes"/>
      <point x="37" y="370"/>
      <point x="68" y="340"/>
      <point x="122" y="339" type="curve"/>
      <point x="149" y="343"/>
      <point x="178" y="361"/>
      <point x="201" y="388" type="curve"/>
      <point x="204" y="388" type="line"/>
      <point x="208" y="353"/>
      <point x="221" y="340"/>
      <point x="248" y="340" type="curve" smooth="yes"/>
      <point x="262" y="340"/>
      <point x="274" y="344"/>
      <point x="285" y="352" type="curve"/>
      <point x="290" y="381" type="line"/>
      <point x="285" y="384" type="line"/>
      <point x="278" y="379"/>
      <point x="270" y="377"/>
      <point x="263" y="377" type="curve" smooth="yes"/>
      <point x="250" y="377"/>
      <point x="244" y="386"/>
      <point x="244" y="407" type="curve" smooth="yes"/>
      <point x="244" y="423"/>
      <point x="250" y="549"/>
      <point x="250" y="567" type="curve" smooth="yes"/>
      <point x="250" y="617"/>
      <point x="217" y="646"/>
      <point x="158" y="646" type="curve" smooth="yes"/>
    </contour>
    <contour>
      <point x="201" y="419" type="line"/>
      <point x="179" y="391"/>
      <point x="152" y="375"/>
      <point x="130" y="375" type="curve" smooth="yes"/>
      <point x="99" y="375"/>
      <point x="81" y="394"/>
      <point x="81" y="424" type="curve" smooth="yes"/>
      <point x="81" y="446"/>
      <point x="94" y="460"/>
      <point x="117" y="465" type="curve" smooth="yes"/>
      <point x="203" y="485" type="line"/>
    </contour>
    <contour>
      <point x="298" y="6" type="move" name="ogonek"/>
    </contour>
    <contour>
      <point x="166" y="298" type="move" name="top"/>
    </contour>
  </outline>
</glyph>
<glyph name="breveacute" format="1">
  <advance width="390"/>
  <outline>
    <contour>
      <point x="245" y="740" type="line"/>
      <point x="217" y="706"/>
      <point x="189" y="673"/>
      <point x="160" y="640" type="curve"/>
      <point x="180" y="623" type="line"/>
      <point x="187" y="622" type="line"/>
      <point x="218" y="654"/>
      <point x="247" y="684"/>
      <point x="276" y="716" type="curve"/>
      <point x="276" y="722" type="line"/>
      <point x="252" y="740" type="line"/>
    </contour>
    <component base="breve.cap" yOffset="-20"/>
    <contour>
      <point x="195" y="455" type="move" name="_top"/>
    </contour>
  </outline>
</glyph>
<glyph name="caron.cap" format="1">
  <advance width="390"/>
  <outline>
    <contour>
      <point x="294" y="651" type="line"/>
      <point x="260" y="628"/>
      <point x="228" y="606"/>
      <point x="195" y="583" type="curve"/>
      <point x="163" y="606"/>
      <point x="130" y="628"/>
      <point x="96" y="651" type="curve"/>
      <point x="89" y="651" type="line"/>
      <point x="77" y="626" type="line"/>
      <point x="115" y="600"/>
      <point x="151" y="571"/>
      <point x="186" y="543" type="curve"/>
      <point x="206" y="543" type="line"/>
      <point x="239" y="571"/>
      <point x="275" y="600"/>
      <point x="313" y="626" type="curve"/>
      <point x="301" y="651" type="line"/>
    </contour>
    <contour>
      <point x="195" y="455" type="move" name="_top"/>
    </contour>
  </outline>
</glyph>
<glyph name="dieresisacute" format="1">
  <advance width="390"/>
  <outline>
    <contour>
      <point x="249" y="613"/>
      <point x="237" y="600"/>
      <point x="237" y="581" type="curve" smooth="yes"/>
      <point x="237" y="562"/>
      <point x="249" y="550"/>
      <point x="268" y="550" type="curve" smooth="yes"/>
      <point x="287" y="550"/>
      <point x="300" y="563"/>
      <point x="300" y="582" type="curve" smooth="yes"/>
      <point x="300" y="601"/>
      <point x="288" y="613"/>
      <point x="269" y="613" type="curve" smooth="yes"/>
    </contour>
    <contour>
      <point x="100" y="613"/>
      <point x="88" y="600"/>
      <point x="88" y="581" type="curve" smooth="yes"/>
      <point x="88" y="562"/>
      <point x="100" y="550"/>
      <point x="119" y="550" type="curve" smooth="yes"/>
      <point x="138" y="550"/>
      <point x="151" y="563"/>
      <point x="151" y="582" type="curve" smooth="yes"/>
      <point x="151" y="601"/>
      <point x="139" y="613"/>
      <point x="120" y="613" type="curve" smooth="yes"/>
    </contour>
    <contour>
      <point x="214" y="738"/>
      <point x="151" y="718"/>
      <point x="88" y="701" type="curve"/>
      <point x="94" y="673" type="line"/>
      <point x="101" y="668" type="line"/>
      <point x="167" y="685"/>
      <point x="230" y="702"/>
      <point x="298" y="723" type="curve"/>
      <point x="302" y="730" type="line"/>
      <point x="293" y="762" type="line"/>
      <point x="287" y="766" type="line"/>
    </contour>
    <contour>
      <point x="195" y="455" type="move" name="_top"/>
    </contour>
  </outline>
</glyph>
<glyph name="e.sups" format="1">
  <advance width="297"/>
  <outline>
    <contour>
      <point x="86" y="646"/>
      <point x="35" y="587"/>
      <point x="35" y="490" type="curve" smooth="yes"/>
      <point x="35" y="398"/>
      <point x="84" y="338"/>
      <point x="169" y="338" type="curve" smooth="yes"/>
      <point x="202" y="338"/>
      <point x="236" y="348"/>
      <point x="263" y="362" type="curve"/>
      <point x="268" y="399" type="line"/>
      <point x="263" y="402" type="line"/>
      <point x="236" y="385"/>
      <point x="203" y="376"/>
      <point x="173" y="376" type="curve" smooth="yes"/>
      <point x="112" y="376"/>
      <point x="80" y="420"/>
      <point x="80" y="493" type="curve" smooth="yes"/>
      <point x="80" y="567"/>
      <point x="111" y="612"/>
      <point x="164" y="612" type="curve" smooth="yes"/>
      <point x="207" y="612"/>
      <point x="235" y="583"/>
      <point x="235" y="535" type="curve"/>
      <point x="235" y="532"/>
      <point x="235" y="530"/>
      <point x="234" y="523" type="curve"/>
      <point x="71" y="523" type="line"/>
      <point x="71" y="496" type="line"/>
      <point x="269" y="496" type="line"/>
      <point x="275" y="503" type="line"/>
      <point x="275" y="511"/>
      <point x="276" y="523"/>
      <point x="276" y="529" type="curve" smooth="yes"/>
      <point x="276" y="601"/>
      <point x="236" y="646"/>
      <point x="165" y="646" type="curve" smooth="yes"/>
    </contour>
    <contour>
      <point x="178" y="0" type="move" name="bottom"/>
    </contour>
    <contour>
      <point x="291" y="6" type="move" name="ogonek"/>
    </contour>
    <contour>
      <point x="174" y="296" type="move" name="top"/>
    </contour>
  </outline>
</glyph>
<glyph name="f.sups" format="1">
  <advance width="177"/>
  <outline>
    <contour>
      <point x="112" y="802"/>
      <point x="74" y="764"/>
      <point x="74" y="694" type="curve" smooth="yes"/>
      <point x="76" y="467" type="line"/>
      <point x="74" y="344" type="line"/>
      <point x="122" y="344" type="line"/>
      <point x="120" y="472" type="line"/>
      <point x="121" y="702" type="line" smooth="yes"/>
      <point x="121" y="744"/>
      <point x="140" y="766"/>
      <point x="174" y="766" type="curve" smooth="yes"/>
      <point x="189" y="766"/>
      <point x="203" y="763"/>
      <point x="221" y="756" type="curve"/>
      <point x="225" y="760" type="line"/>
      <point x="228" y="796" type="line"/>
      <point x="210" y="800"/>
      <point x="194" y="802"/>
      <point x="179" y="802" type="curve" smooth="yes"/>
    </contour>
    <contour>
      <point x="31" y="640" type="line"/>
      <point x="29" y="613" type="line"/>
      <point x="32" y="610" type="line"/>
      <point x="197" y="610" type="line"/>
      <point x="200" y="637" type="line"/>
      <point x="198" y="640" type="line"/>
    </contour>
  </outline>
</glyph>
<glyph name="five.tf" format="1">
  <advance width="475"/>
  <outline>
    <contour>
      <point x="323" y="586" type="line"/>
      <point x="171" y="586" type="line"/>
      <point x="115" y="587" type="line"/>
      <point x="104" y="578" type="line"/>
      <point x="99" y="332" type="line"/>
      <point x="105" y="326" type="line"/>
      <point x="191" y="308" type="line" smooth="yes"/>
      <point x="303" y="285"/>
      <point x="354" y="247"/>
      <point x="354" y="186" type="curve" smooth="yes"/>
      <point x="354" y="95"/>
      <point x="274" y="37"/>
      <point x="151" y="37" type="curve" smooth="yes"/>
      <point x="125" y="37"/>
      <point x="95" y="40"/>
      <point x="61" y="46" type="curve"/>
      <point x="56" y="41" type="line"/>
      <point x="61" y="3" type="line"/>
      <point x="92" y="-2"/>
      <point x="125" y="-5"/>
      <point x="151" y="-5" type="curve" smooth="yes"/>
      <point x="302" y="-5"/>
      <point x="403" y="71"/>
      <point x="403" y="188" type="curve" smooth="yes"/>
      <point x="403" y="271"/>
      <point x="342" y="321"/>
      <point x="212" y="349" type="curve" smooth="yes"/>
      <point x="141" y="363" type="line"/>
      <point x="147" y="543" type="line"/>
      <point x="341" y="543" type="line"/>
      <point x="397" y="540" type="line"/>
      <point x="402" y="544" type="line"/>
      <point x="407" y="585" type="line"/>
      <point x="402" y="588" type="line"/>
    </contour>
  </outline>
</glyph>
<glyph name="five.tosf" format="1">
  <advance width="475"/>
  <outline>
    <contour>
      <point x="325" y="495" type="line"/>
      <point x="171" y="495" type="line"/>
      <point x="115" y="496" type="line"/>
      <point x="104" y="486" type="line"/>
      <point x="98" y="240" type="line"/>
      <point x="104" y="234" type="line"/>
      <point x="192" y="217" type="line" smooth="yes"/>
      <point x="304" y="193"/>
      <point x="356" y="155"/>
      <point x="356" y="93" type="curve" smooth="yes"/>
      <point x="356" y="2"/>
      <point x="275" y="-56"/>
      <point x="150" y="-56" type="curve" smooth="yes"/>
      <point x="124" y="-56"/>
      <point x="93" y="-53"/>
      <point x="59" y="-47" type="curve"/>
      <point x="54" y="-52" type="line"/>
      <point x="59" y="-90" type="line"/>
      <point x="90" y="-96"/>
      <point x="124" y="-99"/>
      <point x="149" y="-99" type="curve" smooth="yes"/>
      <point x="302" y="-99"/>
      <point x="405" y="-21"/>
      <point x="405" y="96" type="curve" smooth="yes"/>
      <point x="405" y="180"/>
      <point x="344" y="230"/>
      <point x="212" y="257" type="curve" smooth="yes"/>
      <point x="141" y="271" type="line"/>
      <point x="146" y="452" type="line"/>
      <point x="342" y="452" type="line"/>
      <point x="399" y="449" type="line"/>
      <point x="404" y="453" type="line"/>
      <point x="409" y="493" type="line"/>
      <point x="406" y="497" type="line"/>
    </contour>
  </outline>
</glyph>
<glyph name="g.sups" format="1">
  <advance width="320"/>
  <outline>
    <contour>
      <point x="92" y="456" type="line"/>
      <point x="72" y="442"/>
      <point x="57" y="429"/>
      <point x="51" y="416" type="curve"/>
      <point x="50" y="329"/>
      <point x="254" y="377"/>
      <point x="254" y="308" type="curve" smooth="yes"/>
      <point x="254" y="275"/>
      <point x="212" y="248"/>
      <point x="159" y="248" type="curve" smooth="yes"/>
      <point x="109" y="248"/>
      <point x="82" y="271"/>
      <point x="82" y="297" type="curve" smooth="yes"/>
      <point x="82" y="323"/>
      <point x="108" y="341"/>
      <point x="141" y="360" type="curve"/>
      <point x="104" y="368" type="line"/>
      <point x="104" y="360" type="line"/>
      <point x="68" y="341"/>
      <point x="43" y="320"/>
      <point x="42" y="294" type="curve" smooth="yes"/>
      <point x="42" y="252"/>
      <point x="84" y="218"/>
      <point x="156" y="218" type="curve" smooth="yes"/>
      <point x="235" y="218"/>
      <point x="296" y="260"/>
      <point x="296" y="315" type="curve" smooth="yes"/>
      <point x="296" y="415"/>
      <point x="92" y="373"/>
      <point x="92" y="420" type="curve" smooth="yes"/>
      <point x="92" y="430"/>
      <point x="97" y="437"/>
      <point x="120" y="452" type="curve"/>
      <point x="92" y="462" type="line"/>
    </contour>
    <contour>
      <point x="210" y="613"/>
      <point x="237" y="588"/>
      <point x="237" y="544" type="curve" smooth="yes"/>
      <point x="237" y="498"/>
      <point x="209" y="474"/>
      <point x="163" y="474" type="curve" smooth="yes"/>
      <point x="117" y="474"/>
      <point x="91" y="498"/>
      <point x="91" y="543" type="curve" smooth="yes"/>
      <point x="91" y="587"/>
      <point x="118" y="613"/>
      <point x="164" y="613" type="curve" smooth="yes"/>
    </contour>
    <contour>
      <point x="92" y="645"/>
      <point x="48" y="607"/>
      <point x="48" y="542" type="curve" smooth="yes"/>
      <point x="48" y="480"/>
      <point x="90" y="442"/>
      <point x="162" y="442" type="curve" smooth="yes"/>
      <point x="235" y="442"/>
      <point x="280" y="481"/>
      <point x="280" y="545" type="curve" smooth="yes"/>
      <point x="280" y="605"/>
      <point x="235" y="645"/>
      <point x="165" y="645" type="curve" smooth="yes"/>
    </contour>
    <contour>
      <point x="292" y="645"/>
      <point x="255" y="634"/>
      <point x="224" y="629" type="curve"/>
      <point x="255" y="594" type="line"/>
      <point x="261" y="606" type="line"/>
      <point x="281" y="609"/>
      <point x="300" y="612"/>
      <point x="322" y="617" type="curve"/>
      <point x="322" y="650" type="line"/>
      <point x="317" y="653" type="line"/>
    </contour>
    <contour>
      <point x="182" y="291" type="move" name="top"/>
    </contour>
  </outline>
</glyph>
<glyph name="hookabove" format="1">
  <advance width="390"/>
  <outline>
    <contour>
      <point x="170" y="696"/>
      <point x="143" y="683"/>
      <point x="119" y="660" type="curve"/>
      <point x="131" y="640" type="line"/>
      <point x="150" y="655"/>
      <point x="171" y="663"/>
      <point x="187" y="663" type="curve" smooth="yes"/>
      <point x="203" y="663"/>
      <point x="214" y="656"/>
      <point x="214" y="643" type="curve" smooth="yes"/>
      <point x="214" y="627"/>
      <point x="196" y="604"/>
      <point x="163" y="581" type="curve"/>
      <point x="191" y="533" type="line"/>
      <point x="217" y="546" type="line"/>
      <point x="199" y="578" type="line"/>
      <point x="232" y="604"/>
      <point x="249" y="626"/>
      <point x="249" y="648" type="curve" smooth="yes"/>
      <point x="249" y="675"/>
      <point x="226" y="696"/>
      <point x="195" y="696" type="curve" smooth="yes"/>
    </contour>
    <contour>
      <point x="195" y="456" type="move" name="_top"/>
    </contour>
  </outline>
</glyph>
<glyph name="iacute_j.loclNLD" format="1">
  <advance width="525"/>
  <outline>
    <contour>
      <point x="201" y="219" type="move"/>
    </contour>
    <component base="iacute"/>
    <component base="j" xOffset="249"/>
    <component base="acute" xOffset="186" yOffset="39"/>
  </outline>
</glyph>
<glyph name="l.sups" format="1">
  <advance width="158"/>
  <outline>
    <contour>
      <point x="59" y="796" type="line"/>
      <point x="61" y="470" type="line"/>
      <point x="59" y="344" type="line"/>
      <point x="107" y="344" type="line"/>
      <point x="105" y="474" type="line"/>
      <point x="107" y="800" type="line"/>
    </contour>
    <contour>
      <point x="97" y="0" type="move" name="bottom"/>
    </contour>
    <contour>
      <point x="97" y="441" type="move" name="top"/>
    </contour>
    <contour>
      <point x="165" y="296" type="move" name="topright"/>
    </contour>
  </outline>
</glyph>
<glyph name="nine.lf" format="1">
  <advance width="467"/>
  <outline>
    <contour>
      <point x="124" y="594"/>
      <point x="57" y="523"/>
      <point x="57" y="410" type="curve"/>
      <point x="57" y="308"/>
      <point x="115" y="245"/>
      <point x="214" y="245" type="curve" smooth="yes"/>
      <point x="270" y="245"/>
      <point x="317" y="265"/>
      <point x="358" y="297" type="curve"/>
      <point x="369" y="285" type="line"/>
      <point x="378" y="352" type="line"/>
      <point x="334" y="310"/>
      <point x="282" y="286"/>
      <point x="227" y="286" type="curve" smooth="yes"/>
      <point x="149" y="286"/>
      <point x="104" y="332"/>
      <point x="104" y="416" type="curve"/>
      <point x="104" y="507"/>
      <point x="154" y="556"/>
      <point x="239" y="556" type="curve"/>
      <point x="328" y="556"/>
      <point x="372" y="494"/>
      <point x="372" y="379" type="curve"/>
      <point x="372" y="211"/>
      <point x="279" y="95"/>
      <point x="80" y="25" type="curve"/>
      <point x="80" y="19" type="line"/>
      <point x="117" y="-5" type="line"/>
      <point x="122" y="-5" type="line"/>
      <point x="311" y="66"/>
      <point x="419" y="204"/>
      <point x="419" y="379" type="curve"/>
      <point x="419" y="516"/>
      <point x="359" y="594"/>
      <point x="243" y="594" type="curve"/>
    </contour>
  </outline>
</glyph>
<glyph name="nine.tf" format="1">
  <advance width="475"/>
  <outline>
    <contour>
      <point x="126" y="594"/>
      <point x="59" y="523"/>
      <point x="59" y="410" type="curve"/>
      <point x="59" y="308"/>
      <point x="118" y="245"/>
      <point x="218" y="245" type="curve" smooth="yes"/>
      <point x="274" y="245"/>
      <point x="322" y="265"/>
      <point x="363" y="297" type="curve"/>
      <point x="374" y="285" type="line"/>
      <point x="383" y="352" type="line"/>
      <point x="338" y="310"/>
      <point x="286" y="286"/>
      <point x="230" y="286" type="curve" smooth="yes"/>
      <point x="152" y="286"/>
      <point x="106" y="332"/>
      <point x="106" y="416" type="curve"/>
      <point x="106" y="507"/>
      <point x="156" y="556"/>
      <point x="243" y="556" type="curve"/>
      <point x="333" y="556"/>
      <point x="377" y="494"/>
      <point x="377" y="379" type="curve"/>
      <point x="377" y="211"/>
      <point x="283" y="95"/>
      <point x="83" y="25" type="curve"/>
      <point x="83" y="19" type="line"/>
      <point x="120" y="-5" type="line"/>
      <point x="124" y="-5" type="line"/>
      <point x="315" y="66"/>
      <point x="424" y="204"/>
      <point x="424" y="379" type="curve"/>
      <point x="424" y="516"/>
      <point x="363" y="594"/>
      <point x="246" y="594" type="curve"/>
    </contour>
  </outline>
</glyph>
<glyph name="one.tf" format="1">
  <advance width="475"/>
  <outline>
    <contour>
      <point x="44" y="536" type="line"/>
      <point x="44" y="496" type="line"/>
      <point x="51" y="492" type="line"/>
      <point x="228" y="532" type="line"/>
      <point x="229" y="199" type="line"/>
      <point x="226" y="0" type="line"/>
      <point x="278" y="0" type="line"/>
      <point x="276" y="206" type="line"/>
      <point x="279" y="587" type="line"/>
      <point x="270" y="593" type="line"/>
    </contour>
  </outline>
</glyph>
<glyph name="p.sups" format="1">
  <advance width="343"/>
  <outline>
    <contour>
      <point x="162" y="644"/>
      <point x="131" y="626"/>
      <point x="108" y="598" type="curve"/>
      <point x="93" y="598" type="line"/>
      <point x="97" y="557" type="line"/>
      <point x="121" y="589"/>
      <point x="151" y="605"/>
      <point x="182" y="605" type="curve" smooth="yes"/>
      <point x="235" y="605"/>
      <point x="263" y="567"/>
      <point x="263" y="496" type="curve" smooth="yes"/>
      <point x="263" y="413"/>
      <point x="226" y="372"/>
      <point x="162" y="372" type="curve" smooth="yes"/>
      <point x="137" y="372"/>
      <point x="102" y="382"/>
      <point x="70" y="399" type="curve"/>
      <point x="67" y="357" type="line"/>
      <point x="100" y="344"/>
      <point x="132" y="338"/>
      <point x="164" y="338" type="curve" smooth="yes"/>
      <point x="255" y="338"/>
      <point x="309" y="397"/>
      <point x="309" y="501" type="curve" smooth="yes"/>
      <point x="309" y="592"/>
      <point x="267" y="644"/>
      <point x="195" y="644" type="curve" smooth="yes"/>
    </contour>
    <contour>
      <point x="59" y="638" type="line"/>
      <point x="60" y="470" type="line"/>
      <point x="59" y="224" type="line"/>
      <point x="106" y="224" type="line"/>
      <point x="105" y="474" type="line"/>
      <point x="105" y="643" type="line"/>
    </contour>
    <contour>
      <point x="105" y="354" type="line"/>
      <point x="105" y="597" type="line"/>
    </contour>
  </outline>
</glyph>
<glyph name="puso.cap" format="1">
  <advance width="113"/>
  <outline>
    <contour>
      <point x="56" y="153" type="move"/>
    </contour>
    <component base="quotesingle" xOffset="-19" yOffset="-330" yScale="1.48"/>
  </outline>
</glyph>
<glyph name="puso" format="1">
  <advance width="113"/>
  <outline>
    <contour>
      <point x="56" y="128" type="move"/>
    </contour>
    <component base="quotesingle" xOffset="-19" yOffset="-415" yScale="1.49"/>
  </outline>
</glyph>
<glyph name="seven.sinf" format="1">
  <advance width="294"/>
  <outline>
    <contour>
      <point x="26" y="218" type="line"/>
      <point x="29" y="212" type="line"/>
      <point x="78" y="215" type="line"/>
      <point x="218" y="215" type="line"/>
      <point x="66" y="-108" type="line"/>
      <point x="68" y="-116" type="line"/>
      <point x="107" y="-126" type="line"/>
      <point x="137" y="-54" type="line"/>
      <point x="266" y="220" type="line"/>
      <point x="265" y="255" type="line"/>
      <point x="238" y="254" type="line"/>
      <point x="87" y="254" type="line"/>
      <point x="30" y="255" type="line"/>
    </contour>
  </outline>
</glyph>
<glyph name="seven.tf" format="1">
  <advance width="475"/>
  <outline>
    <contour>
      <point x="44" y="545" type="line"/>
      <point x="49" y="538" type="line"/>
      <point x="120" y="541" type="line"/>
      <point x="374" y="541" type="line"/>
      <point x="111" y="11" type="line"/>
      <point x="114" y="2" type="line"/>
      <point x="157" y="-10" type="line"/>
      <point x="201" y="93" type="line"/>
      <point x="425" y="548" type="line"/>
      <point x="424" y="587" type="line"/>
      <point x="382" y="586" type="line"/>
      <point x="131" y="586" type="line"/>
      <point x="48" y="587" type="line"/>
    </contour>
  </outline>
</glyph>
<glyph name="three.tosf" format="1">
  <advance width="475"/>
  <outline>
    <contour>
      <point x="159" y="498"/>
      <point x="107" y="478"/>
      <point x="54" y="434" type="curve"/>
      <point x="62" y="396" type="line"/>
      <point x="69" y="396" type="line"/>
      <point x="117" y="435"/>
      <point x="161" y="454"/>
      <point x="211" y="454" type="curve" smooth="yes"/>
      <point x="278" y="454"/>
      <point x="322" y="419"/>
      <point x="322" y="365" type="curve" smooth="yes"/>
      <point x="322" y="291"/>
      <point x="237" y="238"/>
      <point x="173" y="238" type="curve" smooth="yes"/>
      <point x="124" y="237" type="line"/>
      <point x="122" y="200" type="line"/>
      <point x="126" y="196" type="line"/>
      <point x="185" y="196" type="line"/>
      <point x="294" y="192"/>
      <point x="355" y="149"/>
      <point x="355" y="77" type="curve" smooth="yes"/>
      <point x="355" y="-4"/>
      <point x="280" y="-56"/>
      <point x="164" y="-56" type="curve" smooth="yes"/>
      <point x="134" y="-56"/>
      <point x="95" y="-52"/>
      <point x="61" y="-46" type="curve"/>
      <point x="57" y="-50" type="line"/>
      <point x="61" y="-90" type="line"/>
      <point x="93" y="-95"/>
      <point x="133" y="-98"/>
      <point x="163" y="-98" type="curve" smooth="yes"/>
      <point x="307" y="-98"/>
      <point x="404" y="-27"/>
      <point x="404" y="76" type="curve" smooth="yes"/>
      <point x="404" y="152"/>
      <point x="352" y="202"/>
      <point x="260" y="222" type="curve"/>
      <point x="260" y="226" type="line"/>
      <point x="332" y="258"/>
      <point x="375" y="317"/>
      <point x="375" y="375" type="curve" smooth="yes"/>
      <point x="375" y="449"/>
      <point x="310" y="498"/>
      <point x="219" y="498" type="curve" smooth="yes"/>
    </contour>
  </outline>
</glyph>
<glyph name="two.sinf" format="1">
  <advance width="343"/>
  <outline>
    <contour>
      <point x="126" y="257"/>
      <point x="82" y="235"/>
      <point x="48" y="200" type="curve"/>
      <point x="55" y="164" type="line"/>
      <point x="61" y="164" type="line"/>
      <point x="90" y="198"/>
      <point x="127" y="218"/>
      <point x="164" y="218" type="curve" smooth="yes"/>
      <point x="203" y="218"/>
      <point x="224" y="194"/>
      <point x="224" y="167" type="curve" smooth="yes"/>
      <point x="224" y="133"/>
      <point x="194" y="94"/>
      <point x="144" y="33" type="curve" smooth="yes"/>
      <point x="42" y="-89" type="line"/>
      <point x="42" y="-119" type="line"/>
      <point x="45" y="-121" type="line"/>
      <point x="73" y="-120" type="line"/>
      <point x="240" y="-120" type="line"/>
      <point x="313" y="-122" type="line"/>
      <point x="319" y="-85" type="line"/>
      <point x="316" y="-80" type="line"/>
      <point x="254" y="-82" type="line"/>
      <point x="106" y="-82" type="line"/>
      <point x="104" y="-80" type="line"/>
      <point x="184" y="20" type="line" smooth="yes"/>
      <point x="242" y="91"/>
      <point x="272" y="135"/>
      <point x="272" y="176" type="curve" smooth="yes"/>
      <point x="272" y="225"/>
      <point x="230" y="257"/>
      <point x="173" y="257" type="curve" smooth="yes"/>
    </contour>
  </outline>
</glyph>
<glyph name="x.sups" format="1">
  <advance width="283"/>
  <outline>
    <contour>
      <point x="17" y="639" type="line"/>
      <point x="110" y="496" type="line"/>
      <point x="12" y="344" type="line"/>
      <point x="58" y="344" type="line"/>
      <point x="71" y="369" type="line"/>
      <point x="137" y="467" type="line"/>
      <point x="200" y="372" type="line"/>
      <point x="215" y="341" type="line"/>
      <point x="267" y="346" type="line"/>
      <point x="169" y="495" type="line"/>
      <point x="264" y="641" type="line"/>
      <point x="219" y="641" type="line"/>
      <point x="204" y="615" type="line"/>
      <point x="144" y="525" type="line"/>
      <point x="83" y="616" type="line"/>
      <point x="70" y="644" type="line"/>
    </contour>
  </outline>
</glyph>
<glyph name="zero.tf" format="1">
  <advance width="475"/>
  <outline>
    <contour>
      <point x="116" y="589"/>
      <point x="46" y="481"/>
      <point x="46" y="289" type="curve" smooth="yes"/>
      <point x="46" y="100"/>
      <point x="113" y="-5"/>
      <point x="235" y="-5" type="curve" smooth="yes"/>
      <point x="361" y="-5"/>
      <point x="430" y="102"/>
      <point x="430" y="295" type="curve" smooth="yes"/>
      <point x="430" y="484"/>
      <point x="362" y="589"/>
      <point x="241" y="589" type="curve" smooth="yes"/>
    </contour>
    <contour>
      <point x="333" y="540"/>
      <point x="387" y="452"/>
      <point x="387" y="290" type="curve" smooth="yes"/>
      <point x="387" y="128"/>
      <point x="334" y="41"/>
      <point x="238" y="41" type="curve" smooth="yes"/>
      <point x="140" y="41"/>
      <point x="87" y="130"/>
      <point x="87" y="293" type="curve" smooth="yes"/>
      <point x="87" y="453"/>
      <point x="140" y="540"/>
      <point x="236" y="540" type="curve" smooth="yes"/>
    </contour>
  </outline>
</glyph>
